<?xml version="1.0" encoding="utf-8"?>
<!-- Generator: Adobe Illustrator 18.0.0, SVG Export Plug-In . SVG Version: 6.00 Build 0)  -->
<!DOCTYPE svg PUBLIC "-//W3C//DTD SVG 1.1//EN" "http://www.w3.org/Graphics/SVG/1.1/DTD/svg11.dtd">
<svg version="1.1" id="Capa_1" xmlns="http://www.w3.org/2000/svg" xmlns:xlink="http://www.w3.org/1999/xlink" x="0px" y="0px"
	 viewBox="0 0 95.8 40" enable-background="new 0 0 95.8 40" xml:space="preserve">
<g>
	<path fill="#FFFFFF" d="M21.9,24.1c0,1-0.8,1.9-1.9,1.9c-1,0-1.9-0.8-1.9-1.9c0-1,0.8-1.9,1.9-1.9C21,22.2,21.9,23,21.9,24.1
		 M25.7,27.3H14.3v-6.4h11.5V27.3z M22.4,24.1c0-1.3-1.1-2.4-2.4-2.4s-2.4,1.1-2.4,2.4c0,1.3,1.1,2.4,2.4,2.4S22.4,25.4,22.4,24.1
		 M13.8,28.1V30h12.4v-1.9l-0.4-0.5H14.2L13.8,28.1z M16.2,8h7.5h0.1h0V7.3h0h-0.2c-0.3-1.5-1.6-2.7-3.2-2.9V4.2h-0.1h0
		c0-0.2-0.2-0.4-0.4-0.4c-0.2,0-0.3,0.1-0.4,0.3c0,0,0,0.1,0,0.1h-0.1h0v0.3c-1.6,0.2-2.9,1.4-3.2,2.9h-0.2h0V8h0H16.2z M26.2,19.8
		l-2.1-0.6h-8.2l-2.1,0.6v0.6h12.4V19.8z M16.1,18l-0.2,0.3h0v0.5h8.2v-0.5L23.9,18H16.1z M29.7,29.8l-0.2-0.4v-0.5h0l0.2-0.3
		L29,24.5L28.4,24l-0.7,0.5L27,28.6l0.2,0.3l0,0.5L27,29.8v0.7h-7h0h-7v-0.7l-0.2-0.4v-0.5l0.2-0.3l-0.7-4.1L11.6,24L11,24.5
		l-0.7,4.1l0.2,0.3h0v0.5l-0.2,0.4v0.7H9.5l0.5,1.2V32c0.7-0.2,1.6-0.3,2.8-0.3c2.1,0,3.2,0.4,4.1,0.7c0.8,0.3,1.5,0.5,3.1,0.5
		c1.5,0,2.2-0.2,3.1-0.5c1-0.3,2.1-0.7,4.1-0.7c1.2,0,2.1,0.1,2.8,0.3v-0.3l0.5-1.2h-0.8V29.8z M24.3,16.8h-0.4v0.8H20h-3.9v-0.8
		h-0.4v-0.4H16h0h0.1v-0.2l0.1-0.2v-4.1l-0.1-0.3v-0.2h0.1V9.5H20h3.8v1.9h0.1v0.2l-0.1,0.3V16l0.2,0.2v0.2H24h0.2h0.1V16.8z
		 M18.2,11c0-0.3-0.3-0.6-0.6-0.6h0c-0.3,0-0.6,0.3-0.6,0.6v0.5h0.1v0.2l-0.1,0.3V16l0.1,0.2v0.2h0.1h0h0.8h0H18v-0.2l0.1-0.2v-4.1
		L18,11.7v-0.2h0.1V11z M21.2,11.2c0-0.6-0.5-1.1-1.2-1.2c-0.7,0-1.2,0.5-1.2,1.2v0.3H19v0.2l-0.1,0.3V16l0.1,0.2v0.2h0.1h0.1H20
		h0.8h0.1H21v-0.2l0.2-0.2v-4.1L21,11.7v-0.2h0.1V11.2z M23.1,11c0-0.3-0.3-0.6-0.6-0.6h0c-0.3,0-0.6,0.3-0.6,0.6v0.5H22v0.2
		l-0.1,0.3V16l0.1,0.2v0.2H22h0.1h0.5h0.2h0.1v-0.2l0.1-0.2v-4.1l-0.1-0.3v-0.2h0.1V11z M24.3,9.1l0.2-0.7h-9l0.3,0.7H24.3z
		 M29.3,36.3c-0.5-0.1-1.2-0.2-2.1-0.2c-1.6,0-2.3,0.3-3.2,0.6c-0.9,0.3-2,0.7-4,0.7c-2,0-3.1-0.4-4-0.7c-0.9-0.3-1.6-0.6-3.2-0.6
		c-0.9,0-1.5,0.1-2.1,0.2c2.7,1.6,5.9,2.4,9.3,2.4C23.4,38.8,26.5,37.9,29.3,36.3 M32.1,34.3c-0.7-0.1-1.2-0.3-1.7-0.5
		c-0.9-0.3-1.6-0.6-3.2-0.6c-1.6,0-2.3,0.3-3.2,0.6c-0.9,0.3-2,0.7-4,0.7c-2,0-3.1-0.4-4-0.7c-0.9-0.3-1.6-0.6-3.2-0.6
		s-2.3,0.3-3.2,0.6c-0.5,0.2-1,0.4-1.7,0.5c0.4,0.4,0.9,0.7,1.4,1c0.8-0.3,1.8-0.5,3.5-0.5c2,0,3.1,0.4,4,0.7
		c0.9,0.3,1.6,0.6,3.2,0.6c1.6,0,2.3-0.3,3.2-0.6c0.9-0.3,2-0.7,4-0.7c1.7,0,2.7,0.3,3.5,0.5C31.2,35.1,31.7,34.7,32.1,34.3
		 M38.8,20C38.8,9.6,30.4,1.2,20,1.2C9.6,1.2,1.2,9.6,1.2,20c0,5.2,2.1,9.9,5.5,13.2c0.9-0.1,1.5-0.3,2.1-0.5c0.9-0.3,2-0.7,4-0.7
		c2,0,3.1,0.4,4,0.7c0.9,0.3,1.6,0.6,3.2,0.6c1.6,0,2.3-0.3,3.2-0.6c0.9-0.3,2-0.7,4-0.7c2,0,3.1,0.4,4,0.7c0.6,0.2,1.2,0.4,2.1,0.5
		C36.7,29.9,38.8,25.2,38.8,20 M40,20c0,11-9,20-20,20C9,40,0,31,0,20C0,9,9,0,20,0C31,0,40,9,40,20"/>
	<g>
		<path fill="#FFFFFF" d="M47.9,11.2c0.1,0,0.1,0.1,0.1,0.2l1.7,6.1c0.1,0.5,0.2,0.5,0.4,0.5c0.3,0,0.3-0.1,0.4-0.5l1.6-6.1
			c0-0.1,0.1-0.2,0.1-0.2h0.8c0.1,0,0.2,0.1,0.1,0.2l-1.7,6.4c-0.1,0.4-0.2,0.6-0.3,0.8c-0.2,0.3-0.4,0.4-1.1,0.4
			c-0.5,0-0.8-0.1-0.9-0.2s-0.3-0.5-0.4-1L47,11.3c0-0.1,0-0.2,0.1-0.2H47.9z"/>
		<path fill="#FFFFFF" d="M54.6,12.3c-0.4,0-0.6-0.2-0.6-0.6s0.2-0.6,0.6-0.6s0.6,0.2,0.6,0.6S55,12.3,54.6,12.3z M54.9,13.3
			c0.1,0,0.2,0.1,0.2,0.2v5.2c0,0.1-0.1,0.2-0.2,0.2h-0.7c-0.1,0-0.2-0.1-0.2-0.2v-5.2c0-0.1,0.1-0.2,0.2-0.2H54.9z"/>
		<path fill="#FFFFFF" d="M59.7,13.3c0.1,0,0.1,0.1,0.1,0.2v0.4c0,0.1-0.1,0.2-0.2,0.2h-1.9c-0.5,0-0.7,0.2-0.7,0.5v0.1
			c0,0.3,0.2,0.6,0.6,0.7L59,16c0.8,0.3,1,0.7,1,1.4v0.1c0,0.5-0.2,0.9-0.5,1.1c-0.3,0.2-0.8,0.3-1.6,0.3c-0.7,0-1.3,0-1.9-0.1
			c-0.1,0-0.2-0.1-0.2-0.2v-0.4c0-0.1,0.1-0.2,0.2-0.2H58c0.8,0,1.1-0.1,1.1-0.5v-0.1c0-0.3-0.1-0.5-0.6-0.7l-1.4-0.5
			c-0.6-0.3-1-0.7-1-1.4v-0.2c0-0.5,0.2-0.9,0.6-1.1c0.4-0.2,0.8-0.2,1.4-0.2C58.7,13.3,59.2,13.3,59.7,13.3z"/>
		<path fill="#FFFFFF" d="M61.4,12.3c-0.4,0-0.6-0.2-0.6-0.6s0.2-0.6,0.6-0.6s0.6,0.2,0.6,0.6S61.8,12.3,61.4,12.3z M61.8,13.3
			c0.1,0,0.2,0.1,0.2,0.2v5.2c0,0.1-0.1,0.2-0.2,0.2h-0.7c-0.1,0-0.2-0.1-0.2-0.2v-5.2c0-0.1,0.1-0.2,0.2-0.2H61.8z"/>
		<path fill="#FFFFFF" d="M64.3,11.8c0.1,0,0.2,0,0.2,0.1v1.4h1.1c0.1,0,0.2,0.1,0.2,0.2v0.5c0,0.1-0.1,0.2-0.2,0.2h-1.1v3.4
			c0,0.4,0.1,0.5,0.7,0.5h0.5c0.1,0,0.2,0,0.2,0.1v0.5c0,0.1-0.1,0.1-0.2,0.2c-0.2,0-0.4,0.1-0.6,0.1c-0.4,0-0.5,0-0.9-0.1
			c-0.4-0.1-0.7-0.4-0.7-1.1v-3.6h-0.6c-0.1,0-0.2,0-0.2-0.2v-0.5c0-0.1,0.1-0.2,0.2-0.2h0.6v-1.2c0-0.1,0-0.1,0.1-0.2L64.3,11.8z"
			/>
		<path fill="#FFFFFF" d="M70.7,14.8v3.5c0,0.1-0.1,0.2-0.2,0.3c-0.4,0.2-1.1,0.2-2.2,0.2c-0.7,0-1.2-0.1-1.5-0.3
			c-0.3-0.2-0.4-0.7-0.4-1.3c0-1.2,0.6-1.6,1.8-1.6l1.6,0V15c0-0.6-0.4-0.9-1.3-0.9h-1.5c-0.1,0-0.2,0-0.2-0.2v-0.4
			c0-0.1,0-0.1,0.1-0.2c0.5-0.1,1-0.1,1.5-0.1C70,13.3,70.7,13.7,70.7,14.8z M69.7,16.5h-1.6c-0.6,0-0.9,0.2-0.9,0.8
			c0,0.6,0.3,0.8,1.2,0.8c0.6,0,1,0,1.3-0.1V16.5z M69.6,11.2c0.1,0,0.1,0,0.1,0.1v0.1c0,0.1,0,0.1-0.1,0.1l-1.4,1.3
			c-0.1,0-0.1,0-0.1,0l-0.2-0.1c-0.1,0-0.1-0.1,0-0.1l0.7-1.2c0,0,0.1-0.1,0.1-0.1H69.6z"/>
	</g>
	<g>
		<path fill="#FFFFFF" d="M52.8,21.2c0.4,0.4,0.6,1.1,0.6,2.1c0,1.5-0.4,2.1-1.5,2.4l1.7,2.7c0.1,0.1,0,0.2-0.1,0.2H52
			c-0.2,0-0.3-0.1-0.4-0.2l-1.6-2.6h-0.6v2.7c0,0.1,0,0.2-0.2,0.2h-1.6c-0.1,0-0.2,0-0.2-0.2v-7.6c0-0.1,0.1-0.1,0.2-0.1
			c1-0.1,2-0.1,3-0.1C51.6,20.6,52.4,20.8,52.8,21.2z M49.3,22.3v2.1h1c0.5,0,0.8-0.1,1-0.2c0.2-0.1,0.3-0.4,0.3-0.8
			c0-0.8-0.3-1.1-1.2-1.1H49.3z"/>
		<path fill="#FFFFFF" d="M55.9,22.9c0.1,0,0.2,0.1,0.2,0.2v5.4c0,0.1-0.1,0.2-0.2,0.2h-1.5c-0.1,0-0.2-0.1-0.2-0.2V23
			c0-0.1,0.1-0.2,0.2-0.2H55.9z M57.1,20.4c0.1,0,0.1,0,0.1,0.1v0.1c0,0.1,0,0.1-0.1,0.1l-1.9,1.6c0,0-0.1,0-0.1,0L54.5,22
			c-0.1,0-0.1-0.1,0-0.1l0.7-1.4c0,0,0.1-0.1,0.1-0.1H57.1z"/>
		<path fill="#FFFFFF" d="M59.5,22.8c1.1,0,1.8,0.2,2.2,0.6c0.4,0.4,0.5,1.2,0.5,2.3c0,1.2-0.2,2-0.5,2.3c-0.4,0.4-1.1,0.6-2.2,0.6
			s-1.8-0.2-2.2-0.6c-0.4-0.4-0.5-1.2-0.5-2.3c0-1.2,0.2-2,0.5-2.3C57.7,23,58.4,22.8,59.5,22.8z M59.5,24.3c-0.4,0-0.6,0.1-0.7,0.3
			c-0.1,0.2-0.2,0.6-0.2,1.1s0.1,0.9,0.2,1.1c0.1,0.2,0.4,0.3,0.7,0.3c0.4,0,0.6-0.1,0.7-0.3c0.1-0.2,0.2-0.6,0.2-1.1
			s-0.1-0.9-0.2-1.1C60.1,24.4,59.8,24.3,59.5,24.3z"/>
		<path fill="#FFFFFF" d="M69.8,20.8c0.2,0.1,0.3,0.1,0.3,0.3v1c0,0.1-0.1,0.2-0.2,0.2h-2.2c-0.6,0-1,0.2-1.2,0.5
			c-0.2,0.3-0.3,1-0.3,1.9c0,0.9,0.1,1.6,0.3,1.9c0.2,0.3,0.6,0.5,1.2,0.5h2.2c0.1,0,0.2,0.1,0.2,0.2v1c0,0.2-0.1,0.3-0.3,0.3
			c-0.5,0.1-1.2,0.2-2,0.2c-1.3,0-2.1-0.2-2.7-0.8c-0.5-0.6-0.7-1.6-0.7-3.2c0-1.6,0.2-2.6,0.7-3.2c0.5-0.6,1.3-0.8,2.7-0.8
			C68.6,20.6,69.3,20.7,69.8,20.8z"/>
		<path fill="#FFFFFF" d="M75.7,22.9c0.1,0,0.1,0.1,0.1,0.2v5.3c0,0.1,0,0.1-0.1,0.2c-0.6,0.1-1.5,0.2-2.6,0.2c-1.1,0-1.6-0.1-2-0.5
			s-0.5-0.9-0.5-2V23c0-0.1,0.1-0.2,0.2-0.2h1.5c0.1,0,0.2,0.1,0.2,0.2v2.6c0,0.7,0,1.1,0.2,1.3c0.2,0.2,0.4,0.2,0.8,0.2h0.7V23
			c0-0.1,0.1-0.2,0.2-0.2H75.7z"/>
		<path fill="#FFFFFF" d="M81.6,24.7v3.5c0,0.2-0.1,0.3-0.2,0.3c-0.7,0.1-1.5,0.2-2.3,0.2c-0.4,0-0.7,0-0.9,0
			c-0.2,0-0.4-0.1-0.7-0.1c-0.7-0.2-0.9-0.6-1-1.7c0-0.7,0.2-1.1,0.5-1.4c0.3-0.2,0.9-0.3,1.7-0.3l1.1,0v-0.2c0-0.4-0.3-0.6-0.8-0.6
			h-2c-0.1,0-0.1,0-0.1-0.2v-1c0-0.1,0-0.1,0.1-0.2c0.6-0.1,1.2-0.2,2-0.2C81.3,22.8,81.6,23.6,81.6,24.7z M79.8,26.2h-0.9
			c-0.5,0-0.6,0.2-0.6,0.5c0,0.4,0.2,0.5,0.7,0.5c0.4,0,0.6,0,0.9-0.1V26.2z"/>
		<path fill="#FFFFFF" d="M85.8,23C86,23,86,23,86,23.2v1c0,0.1-0.1,0.2-0.2,0.2h-1c-0.5,0-0.6,0.1-0.6,0.5v3.6
			c0,0.1-0.1,0.2-0.2,0.2h-1.5c-0.1,0-0.2-0.1-0.2-0.2v-4.1c0-0.6,0.2-1,0.5-1.2c0.3-0.2,0.8-0.3,1.4-0.3C85,22.8,85.5,22.9,85.8,23
			z"/>
		<path fill="#FFFFFF" d="M88.7,21.3c0.1,0,0.2,0,0.2,0.2v1.5h0.9c0.1,0,0.2,0,0.2,0.2v1c0,0.1-0.1,0.2-0.2,0.2h-0.9v2.4
			c0,0.4,0.1,0.5,0.6,0.5h0.4c0.1,0,0.2,0.1,0.2,0.2v1.1c0,0.1-0.1,0.2-0.2,0.2c-0.4,0.1-0.7,0.1-1,0.1c-0.3,0-0.5,0-0.7,0
			c-0.2,0-0.3-0.1-0.5-0.2c-0.4-0.2-0.5-0.6-0.5-1.2v-3.1h-0.6c-0.1,0-0.2-0.1-0.2-0.2v-1c0-0.1,0.1-0.2,0.2-0.2h0.6v-1.1
			c0-0.1,0.1-0.1,0.1-0.2L88.7,21.3z"/>
		<path fill="#FFFFFF" d="M93.1,22.8c1.1,0,1.8,0.2,2.2,0.6c0.4,0.4,0.5,1.2,0.5,2.3c0,1.2-0.2,2-0.5,2.3c-0.4,0.4-1.1,0.6-2.2,0.6
			s-1.8-0.2-2.2-0.6c-0.4-0.4-0.5-1.2-0.5-2.3c0-1.2,0.2-2,0.5-2.3C91.3,23,92,22.8,93.1,22.8z M93.1,24.3c-0.4,0-0.6,0.1-0.7,0.3
			c-0.1,0.2-0.2,0.6-0.2,1.1s0.1,0.9,0.2,1.1c0.1,0.2,0.4,0.3,0.7,0.3c0.4,0,0.6-0.1,0.7-0.3c0.1-0.2,0.2-0.6,0.2-1.1
			s-0.1-0.9-0.2-1.1C93.7,24.4,93.5,24.3,93.1,24.3z"/>
	</g>
</g>
</svg>
