<?xml version="1.0" encoding="utf-8"?>
<!-- Generator: Adobe Illustrator 18.0.0, SVG Export Plug-In . SVG Version: 6.00 Build 0)  -->
<!DOCTYPE svg PUBLIC "-//W3C//DTD SVG 1.1//EN" "http://www.w3.org/Graphics/SVG/1.1/DTD/svg11.dtd">
<svg version="1.1" id="Capa_1" xmlns="http://www.w3.org/2000/svg" xmlns:xlink="http://www.w3.org/1999/xlink" x="0px" y="0px"
	 viewBox="0 0 600 600" enable-background="new 0 0 600 600" xml:space="preserve">
<g>
	<g>
		<rect x="300" y="180.4" fill="#FFFFFF" width="257.5" height="239.3"/>
	</g>
	<path fill="#003FA2" d="M352.2,250.9v-28.1c0-0.4,0.2-0.6,0.6-0.6h3.5c0.4,0,0.6,0.2,0.6,0.6v28.1c0,0.4-0.2,0.6-0.6,0.6h-3.5
		C352.4,251.4,352.2,251.3,352.2,250.9z M373.2,239.2v-2c0-2.1-1.3-3.1-4.3-3.1h-6.3c-0.5,0-0.6-0.1-0.6-0.6v-2.3
		c0-0.5,0.1-0.5,0.5-0.6c1.8-0.3,3.9-0.5,6.3-0.5c6.5,0,9,2,9,6.3v13.3c0,0.6-0.3,0.9-0.8,1.1c-2,0.6-4.8,0.8-8.6,0.8
		c-2.9,0-5-0.4-6.2-1.2c-1.2-0.8-1.8-2.6-1.8-5.2c0-4.6,2.3-6.1,7.3-6.1H373.2z M373.2,242.5h-5.3c-2.1,0-2.9,0.7-2.9,2.6
		c0,2.1,1,2.7,3.9,2.7c1.8,0,3.3-0.2,4.4-0.4V242.5z M405.5,230.5c-1.6-0.3-3.7-0.4-6-0.4c-4,0-6.2,0.5-7.6,2.2
		c-1.4,1.7-1.7,4-1.7,8.6c0,4.4,0.6,7.3,1.8,8.7c1.2,1.4,3.7,2.1,7.5,2.1c2.4,0,4.4-0.2,6-0.4c0.4-0.1,0.6-0.3,0.6-0.7v-2.3
		c0-0.4-0.2-0.6-0.6-0.6h-6c-2,0-3.3-0.4-3.8-1.3c-0.5-0.9-0.8-2.7-0.8-5.5c0-2.8,0.3-4.6,0.8-5.4c0.6-0.9,1.8-1.3,3.8-1.3h6
		c0.4,0,0.6-0.2,0.6-0.6v-2.3C406,230.8,405.9,230.6,405.5,230.5z M410.2,230.3c-0.4,0-0.6,0.2-0.6,0.6v20c0,0.4,0.2,0.6,0.6,0.6
		h3.5c0.4,0,0.6-0.2,0.6-0.6v-20c0-0.4-0.2-0.6-0.6-0.6H410.2z M412,226.9c1.8,0,2.8-0.9,2.8-2.6c0-1.8-0.9-2.6-2.8-2.6
		c-1.8,0-2.8,1-2.8,2.6C409.2,225.9,410.2,226.9,412,226.9z M427.8,251.6c3.6,0,6.4-0.2,8.5-0.6c0.4-0.1,0.6-0.1,0.6-0.6v-19.5
		c0-0.4-0.2-0.6-0.6-0.6h-3.5c-0.4,0-0.6,0.2-0.6,0.6v16.8h-4.4c-2,0-2.8,0-3.6-0.8c-0.8-0.8-0.9-2.2-0.9-5.1v-10.8
		c0-0.4-0.2-0.6-0.5-0.6h-3.4c-0.4,0-0.6,0.2-0.6,0.6v11.7c0,4.1,0.4,6.2,1.9,7.5C422.2,251.4,424,251.6,427.8,251.6z M459.3,222.8
		v27.4c0,0.5-0.2,0.7-0.7,0.8c-2.8,0.5-5.5,0.7-8.2,0.7c-4,0-6.1-0.5-7.6-2.2c-1.4-1.7-1.8-4.1-1.8-8.6c0-4.3,0.6-7.2,1.7-8.6
		c1.2-1.5,3.5-2.2,7-2.2c2,0,3.6,0.1,4.9,0.2v-7.5c0-0.4,0.2-0.6,0.6-0.6h3.5C459.1,222.2,459.3,222.4,459.3,222.8z M454.7,234.1
		h-4.2c-2.1,0-3.4,0.4-4,1.3c-0.6,0.8-0.8,2.7-0.8,5.5c0,2.8,0.3,4.6,0.8,5.4c0.6,0.9,1.9,1.3,3.9,1.3c1.4,0,2.9-0.1,4.3-0.3V234.1z
		 M475.7,239.2v-2c0-2.1-1.3-3.1-4.3-3.1h-6.3c-0.5,0-0.6-0.1-0.6-0.6v-2.3c0-0.5,0.1-0.5,0.5-0.6c1.8-0.3,3.9-0.5,6.3-0.5
		c6.5,0,9,2,9,6.3v13.3c0,0.6-0.3,0.9-0.8,1.1c-2,0.6-4.8,0.8-8.6,0.8c-2.9,0-5-0.4-6.2-1.2c-1.2-0.8-1.8-2.6-1.8-5.2
		c0-4.6,2.3-6.1,7.3-6.1H475.7z M475.7,242.5h-5.3c-2.1,0-2.9,0.7-2.9,2.6c0,2.1,1,2.7,3.9,2.7c1.8,0,3.3-0.2,4.4-0.4V242.5z
		 M486.1,249.5c-1.4-1.7-1.8-4.1-1.8-8.6c0-4.3,0.6-7.2,1.7-8.6c1.2-1.5,3.5-2.2,7-2.2c2,0,3.6,0.1,4.9,0.2v-7.5
		c0-0.4,0.2-0.6,0.6-0.6h3.5c0.4,0,0.6,0.2,0.6,0.6v27.4c0,0.5-0.2,0.7-0.7,0.8c-2.8,0.5-5.5,0.7-8.2,0.7
		C489.7,251.6,487.6,251.1,486.1,249.5z M488.9,240.9c0,2.8,0.3,4.6,0.8,5.4c0.6,0.9,1.9,1.3,3.9,1.3c1.4,0,2.9-0.1,4.3-0.3v-13.2
		h-4.2c-2.1,0-3.4,0.4-4,1.3C489.2,236.2,488.9,238.1,488.9,240.9z M377.5,260.1c-11.3,0-19.4,0.6-24,1.7c-0.8,0.2-1.3,0.3-1.3,1.4
		v49c0,1,0.5,1.5,1.3,1.5h13.8c0.9,0,1.4-0.5,1.4-1.5v-38h6.3c4.6,0,6.2-0.1,7.7,2.1c1.5,2.2,1.5,4.7,1.5,11.7v24.3
		c0,1,0.5,1.5,1.3,1.5h13.6c0.9,0,1.4-0.5,1.4-1.5v-29.3c0-9.7-0.9-14.9-4.6-18.4C392.3,261.1,387.2,260.1,377.5,260.1z
		 M452.8,265.6c3.3,3.6,5,10.8,5,21.6c0,10.9-1.7,18.1-5,21.6c-3.3,3.6-9.9,5.3-20,5.3c-10,0-16.8-1.8-20.1-5.3
		c-3.3-3.6-4.9-10.8-4.9-21.6c0-10.9,1.6-18.1,4.9-21.6c3.3-3.7,10-5.4,20.1-5.4C442.9,260.1,449.5,261.9,452.8,265.6z M441.4,287.2
		c0-5.2-0.6-8.7-1.7-10.5c-1-1.7-3.4-2.5-6.8-2.5c-3.5,0-5.8,0.8-6.9,2.6c-1,1.7-1.6,5.2-1.6,10.4c0,5.2,0.6,8.7,1.6,10.4
		c1.1,1.7,3.5,2.5,6.9,2.5c3.5,0,5.8-0.8,6.8-2.5C440.8,295.9,441.4,292.5,441.4,287.2z M486.5,260.1c-15.4,0-22.5,4.6-22.5,14.4
		v1.7c0,7.6,3.3,12.6,9.8,14.7l10.7,3.6c3.8,1.2,5.1,2.2,5.1,3.6v0.7c0,1.8-1,2.2-4.8,2.2h-20.2c-1,0-1.6,0.5-1.6,1.5v9.4
		c0,0.9,0.6,1.4,1.6,1.4c5.7,0.7,12.6,0.9,20.6,0.9c13.6,0,20.3-4.8,20.3-14.2v-1.7c0-7.4-2.8-12.2-10-14.5l-11.7-3.8
		c-2.5-0.8-3.8-2-3.8-3.2v-0.8c0-1.8,1.6-2.6,4.8-2.6h16.8c1,0,1.6-0.5,1.6-1.5v-8.6c0-0.8-0.5-1.2-1.5-1.5
		C496.7,260.6,491.7,260.1,486.5,260.1z M398.5,323.2h-13.7c-0.9,0-1.4,0.5-1.4,1.5v38h-6.3c-4.3,0.1-6.4-0.3-7.8-2
		c-1.1-2.1-1.6-5.2-1.4-11.8v-24.3c0-1-0.5-1.5-1.4-1.5H353c-1,0-1.5,0.5-1.5,1.5v29.2c0,9.7,0.9,15,4.6,18.5
		c3.7,3.5,8.7,4.4,18.5,4.4c10,0,18-0.6,23.9-1.7c1.1-0.3,1.3-0.5,1.3-1.6v-48.8C399.8,323.6,399.3,323.2,398.5,323.2z M432.3,322.7
		c-11.3,0-19.4,0.6-24,1.7c-0.8,0.2-1.3,0.3-1.3,1.4v49c0,1,0.5,1.5,1.3,1.5h13.8c0.9,0,1.4-0.5,1.4-1.5v-38h6.3
		c4.6,0,6.2-0.1,7.7,2.1c1.5,2.2,1.5,4.7,1.5,11.7v24.3c0,1,0.5,1.5,1.3,1.5h13.6c0.9,0,1.4-0.5,1.4-1.5v-29.3
		c0-9.7-0.9-14.9-4.6-18.4C447,323.6,441.9,322.7,432.3,322.7z M509.3,349.5v2.9c0,2-0.7,2.5-2.8,2.5h-29.2c0.1,3.3,0.8,5.4,2,6.4
		c1.3,0.9,3.9,1.4,7.8,1.4h17.2c0.9,0,1.4,0.5,1.4,1.4v9.6c0,0.8-0.5,1.4-1.3,1.6c-4.7,1-11.1,1.5-19.1,1.5
		c-9.8,0-16.4-1.8-19.7-5.3c-3.3-3.7-5-10.9-5-21.6c0-10.9,1.7-18.1,5-21.6c3.3-3.7,9.8-5.4,19.7-5.4c9.7,0,16,1.8,19.2,5.3
		C507.7,331.6,509.3,338.7,509.3,349.5z M492.9,345c0-6.3-2.1-8.2-7.7-8.2c-5.7,0-8.1,2-8.1,8.2H492.9z"/>
	<g>
		<rect x="42.5" y="180.4" fill="#4BA6DE" width="257.5" height="239.3"/>
	</g>
	<path fill="#FFFFFF" d="M179.5,317.9c0,4.6-3.7,8.3-8.3,8.3c-4.6,0-8.3-3.7-8.3-8.3c0-4.6,3.7-8.3,8.3-8.3
		C175.8,309.7,179.5,313.4,179.5,317.9z M196.6,303.7v28.5h-50.7v-28.5H196.6z M182.1,317.9c0-6-4.9-10.8-10.8-10.8
		s-10.8,4.9-10.8,10.8c0,6,4.9,10.8,10.8,10.8S182.1,323.9,182.1,317.9z M143.9,336v8.4h54.7V336l-1.6-2h-51.3L143.9,336z
		 M154.6,247h33.3h0.6h0.1V244h-0.1h-0.9c-1.4-6.7-7.1-11.9-14.3-12.7v-1.4h-0.2h0c0,0,0,0,0,0c0-1-0.8-1.8-1.8-1.8
		c-0.8,0-1.4,0.5-1.7,1.2c-0.1,0.2-0.1,0.4-0.1,0.6h-0.3h0v1.4c-7.2,0.9-12.9,6-14.3,12.7H154h-0.1v3.1h0.1H154.6z M198.6,299.2
		l-9.1-2.7h-36.3l-9.2,2.7v2.7h54.7V299.2z M153.9,291.3l-0.8,1.4h0v2h36.5v-2l-1-1.4H153.9z M214.3,343.3l-1.1-1.8v-2.1h0l1.1-1.2
		l-3-18.2l-2.9-2.2l-2.9,2.2l-3,18.2l1.1,1.2l0,2.1l-1.1,1.8v2.9h-31.2h0h-31.2v-2.9l-1.1-1.8l0-2.1l1.1-1.2l-3-18.2l-2.9-2.2
		l-2.9,2.2l-3,18.2l1.1,1.2h0v2.1l-1.1,1.8v2.9h-3.5l2.3,5.4v1.3c3.2-0.8,7.1-1.4,12.5-1.4c9.2,0,14,1.7,18.3,3.2
		c3.7,1.3,6.8,2.4,13.6,2.4c6.7,0,9.7-1,13.6-2.4c4.3-1.5,9.1-3.2,18.3-3.2c5.4,0,9.3,0.6,12.5,1.4v-1.3l2.3-5.4h-3.5V343.3z
		 M190.2,286h-1.6v3.5h-17.3h-17.3V286h-1.6v-2h1.3h0.1h0.2v-0.7l0.7-1v-18l-0.7-1.3v-0.8h0.7v-8.6h16.7h16.7v8.6h0.7v0.8l-0.7,1.3
		v18l0.7,1v0.7h0.2h0.7h0.6V286z M163.3,260.1c0-1.5-1.2-2.6-2.8-2.6h-0.2c-1.5,0-2.8,1.2-2.8,2.6v2.2h0.7v0.8l-0.7,1.3v18l0.7,1
		v0.7h0.3h0h3.5h0.2h0.4v-0.7l0.7-1v-18l-0.7-1.3v-0.8h0.7V260.1z M176.6,261c0-2.8-2.4-5.1-5.3-5.1c-2.9,0-5.3,2.3-5.3,5.1v1.2h0.7
		v0.8l-0.7,1.3v18l0.7,1v0.7h0.5h0.6h3.6h3.6h0.6h0.5v-0.7l0.7-1v-18l-0.7-1.3v-0.8h0.7V261z M184.9,260.1c0-1.5-1.2-2.6-2.8-2.6
		H182c-1.5,0-2.8,1.2-2.8,2.6v2.2h0.7v0.8l-0.7,1.3v18l0.7,1v0.7h0.4h0.6h2.3h0.8h0.3v-0.7l0.7-1v-18l-0.7-1.3v-0.8h0.7V260.1z
		 M190.2,251.9l1-3.1h-39.7l1.1,3.1H190.2z M212.2,372.3c-2.4-0.6-5.2-0.9-9.2-0.9c-7,0-10.3,1.1-14.1,2.5
		c-4.1,1.4-8.8,3.1-17.7,3.1c-8.9,0-13.6-1.6-17.7-3.1c-3.8-1.3-7.1-2.5-14.1-2.5c-4,0-6.8,0.4-9.1,0.9c12.1,6.9,26.1,10.8,41,10.8
		C186.2,383.1,200.2,379.1,212.2,372.3z M224.8,363.5c-3-0.6-5.4-1.4-7.6-2.2c-3.8-1.3-7.1-2.5-14.1-2.5c-7,0-10.3,1.1-14.1,2.5
		c-4.1,1.4-8.8,3.1-17.7,3.1c-8.9,0-13.6-1.6-17.7-3.1c-3.8-1.3-7.1-2.5-14.1-2.5c-7,0-10.3,1.1-14.1,2.5c-2.2,0.8-4.5,1.6-7.5,2.2
		c1.9,1.6,3.9,3.2,6,4.6c3.7-1.2,8.2-2.4,15.6-2.4c8.9,0,13.6,1.6,17.7,3.1c3.8,1.3,7.1,2.5,14.1,2.5c7,0,10.3-1.1,14.1-2.5
		c4.1-1.4,8.8-3.1,17.7-3.1c7.5,0,12,1.1,15.7,2.4C220.8,366.7,222.8,365.1,224.8,363.5z M254.3,300c0-45.9-37.2-83.1-83.1-83.1
		c-45.9,0-83.1,37.2-83.1,83.1c0,22.9,9.3,43.6,24.2,58.6c3.9-0.4,6.4-1.3,9.2-2.2c4.1-1.4,8.8-3.1,17.7-3.1
		c8.9,0,13.6,1.6,17.7,3.1c3.8,1.3,7.1,2.5,14.1,2.5c7,0,10.3-1.1,14.1-2.5c4.1-1.4,8.8-3.1,17.7-3.1c8.9,0,13.6,1.6,17.7,3.1
		c2.8,1,5.3,1.9,9.3,2.2C245.1,343.6,254.3,322.9,254.3,300z M259.8,300c0,48.9-39.6,88.5-88.5,88.5c-48.9,0-88.5-39.6-88.5-88.5
		c0-48.9,39.6-88.5,88.5-88.5C220.2,211.5,259.8,251.1,259.8,300z"/>
</g>
</svg>
