<?xml version="1.0" encoding="utf-8"?>
<!-- Generator: Adobe Illustrator 18.0.0, SVG Export Plug-In . SVG Version: 6.00 Build 0)  -->
<!DOCTYPE svg PUBLIC "-//W3C//DTD SVG 1.1//EN" "http://www.w3.org/Graphics/SVG/1.1/DTD/svg11.dtd">
<svg version="1.1" id="Capa_1" xmlns="http://www.w3.org/2000/svg" xmlns:xlink="http://www.w3.org/1999/xlink" x="0px" y="0px"
	 viewBox="-4.4 210.5 606.7 177.1" enable-background="new -4.4 210.5 606.7 177.1" xml:space="preserve">
<g id="Capa_1_1_" display="none">
	<g display="inline">
		<g id="XMLID_6923_">
			<g id="XMLID_167_">
				<path id="XMLID_184_" fill="#646363" d="M-683,2453v-4.7c-2,2.8-5.5,5.3-11.1,5.3c-5.3,0-11.3-3-11.3-8.9v-0.2
					c0-5.9,5.1-9.1,12.7-9.1c4,0,6.7,0.6,9.5,1.2v-1.2c0-5.7-3.6-8.7-9.5-8.7c-3.6,0-6.3,1-9.1,2.2l-1-2.4c3.2-1.4,6.3-2.4,10.3-2.4
					c7.5,0,12.1,3.8,12.1,11.1v17.6h-2.6V2453L-683,2453z M-682.8,2439.2c-2.6-0.6-5.7-1.2-9.9-1.2c-6.1,0-9.5,2.6-9.5,6.5v0.2
					c0,4.2,4,6.5,8.3,6.5c5.9,0,10.9-3.6,10.9-8.7L-682.8,2439.2L-682.8,2439.2z"/>
				<path id="XMLID_182_" fill="#646363" d="M-660.2,2453.2h-2.4l-13.1-28.5h3.2l10.9,25.1l11.1-25.1h3.2L-660.2,2453.2z"/>
				<path id="XMLID_179_" fill="#646363" d="M-630.6,2451.1c4.5,0,7.5-2,9.9-4.4l2,1.6c-3,3.2-6.3,5.3-12.1,5.3
					c-7.5,0-14.2-5.9-14.2-14.6v-0.2c0-8.1,5.9-14.6,13.6-14.6c8.1,0,13.3,6.3,13.3,14.8v0.2c0,0.4,0,0.6,0,1h-23.7
					C-641.4,2447.1-636.3,2451.1-630.6,2451.1z M-620.9,2437.6c-0.4-5.7-3.8-10.9-10.3-10.9c-5.7,0-10.1,4.7-10.7,10.9H-620.9z"/>
				<path id="XMLID_177_" fill="#646363" d="M-589,2453v-16.8c0-5.7-3.4-9.7-9.1-9.7s-10.1,4.2-10.1,10.1v16.4h-2.8v-28.3h2.8v5.3
					c2-3.4,5.1-5.9,10.5-5.9c7.3,0,11.7,4.9,11.7,11.7v17.2C-586.1,2453-589,2453-589,2453z"/>
				<path id="XMLID_175_" fill="#646363" d="M-568.1,2453.4c-4.5,0-8.1-2.4-8.1-7.7v-18.6h-4.4v-2.6h4.2v-9.1h2.8v9.1h10.1v2.6
					h-10.1v18.2c0,4,2.4,5.5,5.7,5.5c1.4,0,2.6-0.2,4.4-1v2.6C-564.9,2453.2-566.3,2453.4-568.1,2453.4z"/>
				<path id="XMLID_173_" fill="#646363" d="M-535,2453v-5.3c-2,3.4-5.1,5.9-10.5,5.9c-7.3,0-11.7-4.9-11.7-11.7v-17.2h2.8v16.8
					c0,5.7,3.4,9.7,9.1,9.7s10.1-4.2,10.1-10.1v-16.4h2.8v28.3C-532.5,2453-535,2453-535,2453z"/>
				<path id="XMLID_171_" fill="#646363" d="M-507.7,2427.3c-6.7,0-12.5,4.9-12.5,14v11.7h-3v-28.3h2.8v8.1
					c2.2-4.9,7.1-8.7,12.9-8.5L-507.7,2427.3C-507.5,2427.3-507.7,2427.3-507.7,2427.3z"/>
				<path id="XMLID_168_" fill="#646363" d="M-483.4,2453v-4.7c-2,2.8-5.5,5.3-11.1,5.3c-5.3,0-11.3-3-11.3-8.9v-0.2
					c0-5.9,5.1-9.1,12.7-9.1c4,0,6.7,0.6,9.5,1.2v-1.2c0-5.7-3.6-8.7-9.5-8.7c-3.6,0-6.3,1-9.1,2.2l-1-2.4c3.2-1.4,6.3-2.4,10.3-2.4
					c7.5,0,12.1,3.8,12.1,11.1v17.6h-2.6L-483.4,2453L-483.4,2453z M-483.4,2439.2c-2.4-0.6-5.7-1.2-9.9-1.2c-6.1,0-9.5,2.6-9.5,6.5
					v0.2c0,4.2,4,6.5,8.3,6.5c5.9,0,10.9-3.6,10.9-8.7L-483.4,2439.2L-483.4,2439.2L-483.4,2439.2z"/>
			</g>
		</g>
		<g id="XMLID_6905_">
			<g id="XMLID_135_">
				<path id="XMLID_151_" fill="#646363" d="M-289.2,2453.6c-4.2,0-8.7-1.6-11.9-4.2l1.6-2.2c3.2,2.4,6.7,3.8,10.3,3.8
					c4,0,6.9-2.2,6.9-5.3v-0.2c0-3.4-3.6-4.5-7.7-5.7c-4.7-1.4-9.9-2.8-9.9-7.7l0,0c0-4.5,4-7.7,9.5-7.7c3.4,0,7.3,1.2,10.3,3.2
					l-1.4,2.2c-2.6-1.8-5.9-2.8-8.9-2.8c-4,0-6.5,2.2-6.5,4.9v0.2c0,3.2,4,4.4,8.1,5.5c4.7,1.2,9.5,3,9.5,7.9v0.2
					C-279.1,2450.5-283.4,2453.6-289.2,2453.6z"/>
				<path id="XMLID_148_" fill="#646363" d="M-259.3,2451.3c4.5,0,7.5-2,9.9-4.4l2,1.6c-3,3.2-6.3,5.3-12.1,5.3
					c-7.5,0-14.2-5.9-14.2-14.6v-0.2c0-8.1,5.9-14.6,13.6-14.6c8.1,0,13.3,6.3,13.3,14.8v0.2c0,0.4,0,0.6,0,1h-23.9
					C-270.2,2447.1-265,2451.3-259.3,2451.3z M-249.6,2437.6c-0.4-5.7-3.8-10.9-10.3-10.9c-5.7,0-10.1,4.7-10.7,10.9H-249.6z"/>
				<path id="XMLID_146_" fill="#646363" d="M-224.7,2427.5c-6.7,0-12.5,4.9-12.5,14v11.7h-2.8V2425h2.8v8.1
					c2.2-4.9,7.1-8.7,12.9-8.5v3L-224.7,2427.5L-224.7,2427.5z"/>
				<path id="XMLID_144_" fill="#646363" d="M-203.3,2427.5c-6.7,0-12.5,4.9-12.5,14v11.7h-2.8V2425h2.8v8.1
					c2.2-4.9,7.1-8.7,12.9-8.5v3L-203.3,2427.5L-203.3,2427.5z"/>
				<path id="XMLID_141_" fill="#646363" d="M-179,2453.2v-4.7c-2,2.8-5.5,5.3-11.1,5.3c-5.3,0-11.3-3-11.3-8.9v-0.2
					c0-5.9,5.1-9.1,12.7-9.1c4,0,6.7,0.6,9.5,1.2v-1.2c0-5.7-3.6-8.7-9.5-8.7c-3.6,0-6.3,1-9.1,2.2l-1-2.4c3.2-1.4,6.3-2.4,10.3-2.4
					c7.5,0,12.1,3.8,12.1,11.1v17.6L-179,2453.2L-179,2453.2z M-179,2439.4c-2.4-0.6-5.7-1.2-9.9-1.2c-6.1,0-9.5,2.6-9.5,6.5v0.2
					c0,4.2,4,6.5,8.3,6.5c5.9,0,10.9-3.6,10.9-8.7L-179,2439.4L-179,2439.4z"/>
				<path id="XMLID_139_" fill="#646363" d="M-145.8,2453.2v-16.8c0-5.7-3.4-9.7-9.1-9.7s-10.1,4.2-10.1,10.1v16.4h-2.8V2425h2.8
					v5.1c2-3.4,5.1-5.9,10.5-5.9c7.3,0,11.7,4.9,11.7,11.7v17.2L-145.8,2453.2L-145.8,2453.2L-145.8,2453.2z"/>
				<path id="XMLID_136_" fill="#646363" d="M-114.5,2453.2v-4.7c-2,2.8-5.5,5.3-11.1,5.3c-5.3,0-11.3-3-11.3-8.9v-0.2
					c0-5.9,5.1-9.1,12.7-9.1c4,0,6.7,0.6,9.5,1.2v-1.2c0-5.7-3.6-8.7-9.5-8.7c-3.6,0-6.3,1-9.1,2.2l-1-2.4c3.2-1.4,6.3-2.4,10.3-2.4
					c7.5,0,12.1,3.8,12.1,11.1v17.6L-114.5,2453.2L-114.5,2453.2L-114.5,2453.2z M-114.3,2439.4c-2.4-0.6-5.7-1.2-9.9-1.2
					c-6.1,0-9.5,2.6-9.5,6.5v0.2c0,4.2,4,6.5,8.3,6.5c5.9,0,10.9-3.6,10.9-8.7L-114.3,2439.4L-114.3,2439.4z"/>
			</g>
		</g>
		<path id="XMLID_3713_" fill="#E52329" d="M-333.5,2412.3c-2-1.6-4.2-3.4-6.1-4.9c-4.9-4-10.3-6.9-17-7.1c-0.6,0-1.4-0.4-1.8-0.8
			c-2.2-2-4.2-4-6.3-5.9c-2.8-2.4-5.7-3.4-9.5-2.8c-4.7,0.6-7.9,3.2-9.9,7.3c-3.8-2.2-7.3-2.2-11.1,0c-0.2-0.4-0.4-0.8-0.6-1.2
			c-4-6.9-13.3-8.5-19.2-3c-2,1.8-3.8,3.6-5.7,5.1c-0.8,0.6-2,1.2-3,1.2c-4.4,0.2-8.5,1.6-12.1,4.2c-3.6,2.8-7.3,5.3-10.7,8.1
			c-9.1,5.5-15,15.4-15,26.5c0,17.4,14.4,31.4,32.2,31.4c16,0,29.1-11.3,31.6-26.1c2.4,1.2,4.9,1.8,8.1,1.8c3,0,5.5-0.8,7.9-2
			c2.6,14.8,15.8,26.3,31.6,26.3c17.8,0,32.2-14,32.2-31.4C-317.9,2427.7-324.2,2417.8-333.5,2412.3z"/>
		<ellipse id="XMLID_122_" fill="#E49B00" cx="-429.4" cy="2439.2" rx="32.2" ry="31.4"/>
		<ellipse id="XMLID_121_" fill="#E49B00" cx="-350.1" cy="2439.2" rx="32.2" ry="31.4"/>
		<ellipse id="XMLID_3697_" fill="#FAEBCC" cx="-429.4" cy="2439.2" rx="21.4" ry="20.8"/>
		<ellipse id="XMLID_3696_" fill="#FAEBCC" cx="-350.1" cy="2439.2" rx="21.4" ry="20.8"/>
		<path id="XMLID_3695_" fill="#E52329" d="M-390.1,2413.7c9.1-0.2,17,6.7,16.8,15.8c0,9.1-6.5,16.4-16.6,16.6
			c-9.7,0.2-16.4-7.1-16.6-15.4C-406.9,2420.6-399,2413.3-390.1,2413.7z"/>
		<path id="XMLID_3694_" fill="#FAEBCC" d="M-389.9,2421.6c4.7-0.2,8.7,3.6,8.7,8.1c0,4.7-3.4,8.5-8.5,8.7c-4.9,0-8.5-3.8-8.7-7.9
			C-398.6,2425.2-394.4,2421.4-389.9,2421.6z"/>
		<path id="XMLID_34_" fill="#E52329" d="M-423.3,2448.7c-10.3,0-18.6-8.1-18.6-18.2c0-0.2,0-0.6,0-0.8c-2,2.6-3.2,5.7-3.2,9.3
			c0,8.5,7.1,15.4,15.8,15.4c5.5,0,10.5-3,13.4-7.1C-418.3,2448.3-420.7,2448.7-423.3,2448.7z"/>
		<path id="XMLID_33_" fill="#E52329" d="M-344,2448.7c-10.3,0-18.6-8.1-18.6-18.2c0-0.2,0-0.6,0-0.8c-2,2.6-3.2,5.7-3.2,9.3
			c0,8.5,7.1,15.4,15.8,15.4c5.5,0,10.5-3,13.4-7.1C-339,2448.3-341.4,2448.7-344,2448.7z"/>
	</g>
</g>
<g id="Capa_3" display="none">
	<rect x="-707.3" y="2388.4" display="inline" fill="#E52329" width="597.3" height="87"/>
</g>
<g>
	<path fill="#FFFFFF" d="M26.4,331.5c6.8-1.7,9.2-6,9.2-15.3c0-6.3-1.4-10.8-4.1-13.4c-2.8-2.7-7.6-3.9-14.4-3.9
		c-7.3,0-14.1,0.3-20.5,0.9c-0.6,0.1-1,0.3-1,0.8v48.8c0,0.8,0.2,1,1,1H8.2c0.8,0,1-0.2,1-1v-16.9h2.5l10.5,16.6
		c0.7,1,1.2,1.4,2.6,1.4h11.9c1,0,1.3-0.6,0.8-1.3L26.4,331.5z M15.6,322.4H9.2v-11.8h6.4c4.7,0,6.3,1.7,6.3,6
		C21.9,321,20.5,322.4,15.6,322.4z M55.7,300.3v48.9c0,0.7-0.3,1.1-1,1.1H43.1c-0.6,0-1-0.4-1-1.1v-48.9c0-0.7,0.3-1.1,1-1.1h11.6
		C55.4,299.2,55.7,299.6,55.7,300.3z M59.2,289l-8.9,7.1c-0.2,0.2-0.5,0.2-0.9,0l-4.2-2.3c-0.3-0.2-0.4-0.5-0.2-0.9l2.6-5
		c0.2-0.3,0.5-0.5,0.8-0.5h10.2C59.5,287.4,59.9,288.5,59.2,289z M83.4,298.8c-8.8,0-14,1.4-17.5,5.5c-3.4,4.1-4.7,10.2-4.7,20.5
		c0.3,20.3,4.7,25.5,22.1,25.9c17.5-0.4,21.8-5.6,22.1-25.9c0-10.3-1.2-16.4-4.7-20.5C97.4,300.2,92.2,298.8,83.4,298.8z
		 M90.1,335.9c-1.1,2-3.4,3-6.7,3c-3.3,0-5.6-1-6.7-3c-1.1-2-1.7-5.7-1.7-11.1c0-5.4,0.6-9.1,1.7-11.1c1.1-2,3.4-3,6.7-3
		c3.3,0,5.6,1,6.7,3c1.1,2,1.7,5.7,1.7,11.1C91.7,330.2,91.2,333.9,90.1,335.9z M159.4,302.4v7.2c0,0.7-0.3,1-1,1h-14.3
		c-3.3,0-5.4,1-6.5,2.9s-1.6,5.6-1.6,11.1c0,5.5,0.5,9.2,1.6,11.2c1,1.9,3.2,2.9,6.5,2.9h14.3c0.6,0,1,0.3,1,1v7.2
		c0,1.4-0.6,1.9-1.9,2.2c-3.2,0.9-7.6,1.4-13.4,1.4c-8.5,0-14.3-1.8-17.3-5.4c-3-3.6-4.5-10.5-4.5-20.6c0-10.3,1.1-16.3,4.5-20.4
		c3.4-4.1,8.5-5.5,17.3-5.5c5.5,0,10,0.5,13.4,1.4C158.8,300.6,159.4,301.1,159.4,302.4z M207.4,300.2v24.6c0,8.5-0.8,13.9-2.7,18
		c-3,6.1-8.4,7.7-18.9,7.8c-7.2,0-11.6-1-15.1-3.1c-5-3.7-6.5-10.2-6.5-22.8v-24.6c0-0.6,0.3-1,1-1h11.6c0.6,0,1,0.3,1,1v24.6
		c0,5.6,0.5,9.4,1.6,11.2c1.1,1.9,3.2,2.8,6.4,2.8c3.2,0,5.3-0.9,6.4-2.8c1.1-1.9,1.6-5.6,1.6-11.2v-24.6c0-0.6,0.3-1,1-1h11.6
		C207.1,299.2,207.4,299.5,207.4,300.2z M242.4,300.1c-1.4-0.8-4.3-1.3-8.9-1.3c-4.6,0-7.6,0.4-8.9,1.2c-1.4,0.8-2.6,3-3.6,6.7
		l-11.6,42.6c-0.1,0.7,0.1,1,0.8,1h11.3c0.6,0,0.7-0.3,0.9-1l3.4-12.7h15.3l3.4,12.7c0.3,0.8,0.3,1,0.9,1h11.3c0.7,0,1-0.3,0.8-1
		l-11.6-42.6C245,303.1,243.7,301,242.4,300.1z M228.8,325.7l4.1-15.3c0.2-0.5,0.8-0.5,1,0l4.2,15.3H228.8z M292.4,331.5
		c6.8-1.7,9.2-6,9.2-15.3c0-6.3-1.4-10.8-4.1-13.4c-2.8-2.7-7.6-3.9-14.4-3.9c-7.3,0-14.1,0.3-20.5,0.9c-0.6,0.1-1,0.3-1,0.8v48.8
		c0,0.8,0.2,1,1,1h11.6c0.8,0,1-0.2,1-1v-16.9h2.5l10.5,16.6c0.7,1,1.2,1.4,2.6,1.4h11.9c1,0,1.3-0.6,0.8-1.3L292.4,331.5z
		 M281.6,322.4h-6.4v-11.8h6.4c4.7,0,6.3,1.7,6.3,6C287.9,321,286.5,322.4,281.6,322.4z M346.1,300.2v9.9c0,0.6-0.3,1-1,1h-12.5
		v38.3c0,0.7-0.3,1-1,1H320c-0.6,0-1-0.3-1-1V311h-12.4c-0.7,0-1-0.3-1-1v-9.9c0-0.6,0.3-1,1-1h38.5
		C345.8,299.2,346.1,299.5,346.1,300.2z M389,304.3c-3.4-4.1-8.7-5.5-17.5-5.5c-8.8,0-14,1.4-17.5,5.5c-3.4,4.1-4.7,10.2-4.7,20.5
		c0.3,20.3,4.7,25.5,22.1,25.9c17.5-0.4,21.8-5.6,22.1-25.9C393.6,314.5,392.4,308.5,389,304.3z M378.2,335.9c-1.1,2-3.4,3-6.7,3
		c-3.3,0-5.6-1-6.7-3c-1.1-2-1.7-5.7-1.7-11.1c0-5.4,0.6-9.1,1.7-11.1c1.1-2,3.4-3,6.7-3c3.3,0,5.6,1,6.7,3c1.1,2,1.7,5.7,1.7,11.1
		C379.9,330.2,379.3,333.9,378.2,335.9z M112.4,266.1v12.8c0,0.5,0,0.9-0.2,1.1c-0.5,0.9-1.9,1.5-4.2,2c-2.3,0.5-4.9,0.7-7.9,0.7
		c-2.9,0-5.3-0.3-7.1-0.8c-1.8-0.5-3.3-1.5-4.4-2.9c-2.2-2.8-2.9-6.9-2.9-14c0-6.9,1-11.6,2.9-14.1c2-2.5,5.8-3.7,11.6-3.7
		c4.2,0,7.5,0.2,9.7,0.7c0.7,0.2,1,0.6,1,1.2v3.6c0,0.5-0.2,0.7-0.7,0.7h-10c-3,0-5,0.8-6,2.3c-0.9,1.6-1.4,4.7-1.4,9.2
		c0,4.6,0.5,7.6,1.4,9.2c0.9,1.6,2.9,2.3,6,2.3h5.7v-10.5c0-0.5,0.2-0.7,0.7-0.7h5.3C112.2,265.4,112.4,265.6,112.4,266.1z
		 M142.8,279.1c2-2.5,3-7.1,3-14c0-7.1-0.7-11.2-3-14c-2.3-2.9-5.7-3.8-11.6-3.8c-5.9,0-9.3,0.9-11.6,3.8c-2.3,2.8-3,6.9-3,14
		c0,6.9,1,11.5,3,14c2,2.4,5.9,3.7,11.6,3.7C137,282.8,140.8,281.6,142.8,279.1z M125.2,274.3c-0.9-1.6-1.4-4.7-1.4-9.1
		c0-4.6,0.5-7.6,1.4-9.2c0.9-1.6,3-2.4,6-2.4c3,0,5.1,0.8,6,2.4c0.9,1.6,1.4,4.7,1.4,9.2c0,4.5-0.5,7.5-1.4,9.1
		c-0.9,1.6-3,2.3-6,2.3C128.2,276.6,126.2,275.8,125.2,274.3z M151.6,282.3c3.8,0.3,8.4,0.5,13.7,0.5c4.3,0,7.5-0.7,9.4-2.1
		c1.9-1.4,2.8-3.9,2.8-7.5c0-5.1-1.5-7.6-5.9-8.1V265c3.7-0.7,5.1-3,5.1-7.9c0-3.6-1-6.1-2.9-7.5c-1.9-1.4-5.1-2.2-9.6-2.2
		c-4.7,0-8.9,0.2-12.6,0.5c-0.5,0-0.7,0.1-0.7,0.6v33.3C150.9,282.1,151.2,282.3,151.6,282.3z M158,253.5h5.5c4.4,0,6.1,1,6.1,4.6
		c0,1.8-0.5,3-1.4,3.6c-0.9,0.5-2.8,0.8-5.5,0.8H158V253.5z M158,267.6h6.8c3.8,0,5.5,1.1,5.5,4.7c0,3.3-1.5,4.3-5.5,4.3H158V267.6z
		 M182.3,281.9v-33.5c0-0.5,0.2-0.7,0.7-0.7h5.7c0.5,0,0.7,0.2,0.7,0.7v33.5c0,0.5-0.2,0.7-0.7,0.7H183
		C182.6,282.6,182.3,282.3,182.3,281.9z M195.3,281.9v-33.6c0-0.5,0.2-0.7,0.7-0.7h22.6c0.5,0,0.7,0.2,0.7,0.7v4.8
		c0,0.5-0.2,0.7-0.7,0.7h-16.2v8.5h14.8c0.5,0,0.7,0.2,0.7,0.7v4.6c0,0.5-0.2,0.7-0.7,0.7h-14.8v8.1h16.2c0.5,0,0.7,0.2,0.7,0.7v4.8
		c0,0.5-0.2,0.7-0.7,0.7H196C195.5,282.6,195.3,282.3,195.3,281.9z M224.7,282.6h5.7c0.5,0,0.7-0.1,0.7-0.7v-11.9h4.2l7.4,11.7
		c0.5,0.7,0.9,1,1.8,1h5.7c0.7,0,0.9-0.4,0.5-0.9l-7.7-12.2c2.6-0.5,4.3-1.5,5.4-3.1c1-1.6,1.5-4.1,1.5-7.5c0-4.5-1-7.5-2.9-9.1
		c-1.9-1.7-5.3-2.5-10.3-2.5c-4.4,0-8.4,0.2-12,0.5c-0.5,0-0.7,0.1-0.7,0.6v33.4C224,282.4,224.1,282.6,224.7,282.6z M231.1,253.5
		h4.9c2.7,0,4.5,0.4,5.4,1.1c0.9,0.7,1.4,2.2,1.4,4.5c0,2.3-0.5,3.7-1.3,4.4c-0.9,0.6-2.7,0.9-5.5,0.9h-4.9V253.5z M261.6,282.6
		h-5.7c-0.5,0-0.7-0.2-0.7-0.7v-33.5c0-0.5,0.2-0.7,0.7-0.7h4.5c1.9,0.2,1.9,0.3,2.8,1.5l14,20.5v-21.2c0-0.5,0.2-0.7,0.7-0.7h5.7
		c0.5,0,0.7,0.2,0.7,0.7v33.5c0,0.5-0.2,0.7-0.7,0.7h-4.2c-0.9,0-1.7-0.4-2.3-1.1l-14.8-21.7v22.1
		C262.3,282.3,262,282.6,261.6,282.6z M315.6,279.1c2-2.5,3-7.1,3-14c0-7.1-0.7-11.2-3-14c-2.3-2.9-5.7-3.8-11.6-3.8
		c-5.9,0-9.3,0.9-11.6,3.8c-2.3,2.8-3,6.9-3,14c0,6.9,1,11.5,3,14c2,2.4,5.9,3.7,11.6,3.7S313.5,281.6,315.6,279.1z M310,274.3
		c-0.9,1.6-3,2.3-6,2.3c-3,0-5.1-0.8-6-2.3c-0.9-1.6-1.4-4.7-1.4-9.1c0-4.6,0.5-7.6,1.4-9.2c0.9-1.6,3-2.4,6-2.4c3,0,5.1,0.8,6,2.4
		c0.9,1.6,1.4,4.7,1.4,9.2C311.4,269.6,310.9,272.7,310,274.3z M361.6,265.1c0-6.3-1.1-10.8-3.4-13.6c-2.2-2.8-6-4.2-11.2-4.2
		c-5.1,0-9.4,0.2-13.1,0.5c-0.5,0-0.7,0.1-0.7,0.6v33.3c0,0.4,0.1,0.5,0.7,0.6c3.8,0.3,8.2,0.5,13.1,0.5c5.3,0,9-1.4,11.2-4.1
		C360.5,275.9,361.6,271.4,361.6,265.1z M347,276.6h-6.7v-23.1h6.3c5.6,0,7.8,3.4,7.8,11.6C354.5,273.3,352.4,276.6,347,276.6z
		 M366.6,281.9v-33.6c0-0.5,0.2-0.7,0.7-0.7h22.6c0.5,0,0.7,0.2,0.7,0.7v4.8c0,0.5-0.2,0.7-0.7,0.7h-16.2v8.5h14.8
		c0.5,0,0.7,0.2,0.7,0.7v4.6c0,0.5-0.2,0.7-0.7,0.7h-14.8v8.1h16.2c0.5,0,0.7,0.2,0.7,0.7v4.8c0,0.5-0.2,0.7-0.7,0.7h-22.6
		C366.8,282.6,366.6,282.3,366.6,281.9z"/>
	<path fill="#FFFFFF" d="M522.1,316.9c0,4.6-3.7,8.3-8.3,8.3c-4.6,0-8.3-3.7-8.3-8.3c0-4.6,3.7-8.3,8.3-8.3
		C518.4,308.7,522.1,312.4,522.1,316.9z M539.2,302.7v28.5h-50.7v-28.5H539.2z M524.6,316.9c0-6-4.9-10.8-10.8-10.8
		c-6,0-10.8,4.9-10.8,10.8c0,6,4.9,10.8,10.8,10.8C519.8,327.8,524.6,322.9,524.6,316.9z M486.5,335v8.4h54.7V335l-1.6-2h-51.3
		L486.5,335z M497.2,246h33.3h0.6h0.1V243h-0.1h-0.9c-1.4-6.7-7.1-11.9-14.3-12.7v-1.4h-0.2h0c0,0,0,0,0,0c0-1-0.8-1.8-1.8-1.8
		c-0.8,0-1.4,0.5-1.7,1.2c-0.1,0.2-0.1,0.4-0.1,0.6h-0.3h0v1.4c-7.2,0.9-12.9,6-14.3,12.7h-0.9h-0.1v3.1h0.1H497.2z M541.2,298.2
		l-9.1-2.7h-36.3l-9.2,2.7v2.7h54.7V298.2z M496.4,290.4l-0.8,1.4h0v2h36.5v-2l-1-1.4H496.4z M556.9,342.3l-1.1-1.8v-2.1h0l1.1-1.2
		l-3-18.2l-2.9-2.2l-2.9,2.2l-3,18.2l1.1,1.2l0,2.1l-1.1,1.8v2.9h-31.2h0h-31.2v-2.9l-1.1-1.8l0-2.1l1.1-1.2l-3-18.2l-2.9-2.2
		l-2.9,2.2l-3,18.2l1.1,1.2h0v2.1l-1.1,1.8v2.9h-3.5l2.3,5.4v1.3c3.2-0.8,7.1-1.4,12.5-1.4c9.2,0,14,1.7,18.3,3.2
		c3.7,1.3,6.8,2.4,13.6,2.4c6.7,0,9.7-1,13.6-2.4c4.3-1.5,9.1-3.2,18.3-3.2c5.4,0,9.3,0.6,12.5,1.4v-1.3l2.3-5.4h-3.5V342.3z
		 M532.8,285h-1.6v3.5h-17.3h-17.3V285h-1.6v-2h1.3h0.1h0.2v-0.7l0.7-1v-18l-0.7-1.3v-0.8h0.7v-8.6h16.7h16.7v8.6h0.7v0.8l-0.7,1.3
		v18l0.7,1v0.7h0.2h0.7h0.6V285z M505.8,259.1c0-1.5-1.2-2.6-2.8-2.6h-0.2c-1.5,0-2.8,1.2-2.8,2.6v2.2h0.7v0.8l-0.7,1.3v18l0.7,1
		v0.7h0.3h0h3.5h0.2h0.4v-0.7l0.7-1v-18l-0.7-1.3v-0.8h0.7V259.1z M519.1,260c0-2.8-2.4-5.1-5.3-5.1c-2.9,0-5.3,2.3-5.3,5.1v1.2h0.7
		v0.8l-0.7,1.3v18l0.7,1v0.7h0.5h0.6h3.6h3.6h0.6h0.5v-0.7l0.7-1v-18l-0.7-1.3v-0.8h0.7V260z M527.5,259.1c0-1.5-1.2-2.6-2.8-2.6
		h-0.2c-1.5,0-2.8,1.2-2.8,2.6v2.2h0.7v0.8l-0.7,1.3v18l0.7,1v0.7h0.4h0.6h2.3h0.8h0.3v-0.7l0.7-1v-18l-0.7-1.3v-0.8h0.7V259.1z
		 M532.7,250.9l1-3.1H494l1.1,3.1H532.7z M554.8,371.3c-2.4-0.6-5.2-0.9-9.2-0.9c-7,0-10.3,1.1-14.1,2.5c-4.1,1.4-8.8,3.1-17.7,3.1
		c-8.9,0-13.6-1.6-17.7-3.1c-3.8-1.3-7.1-2.5-14.1-2.5c-4,0-6.8,0.4-9.1,0.9c12.1,6.9,26.1,10.8,41,10.8
		C528.7,382.1,542.7,378.1,554.8,371.3z M567.3,362.5c-3-0.6-5.4-1.4-7.6-2.2c-3.8-1.3-7.1-2.5-14.1-2.5c-7,0-10.3,1.1-14.1,2.5
		c-4.1,1.4-8.8,3.1-17.7,3.1c-8.9,0-13.6-1.6-17.7-3.1c-3.8-1.3-7.1-2.5-14.1-2.5c-7,0-10.3,1.1-14.1,2.5c-2.2,0.8-4.5,1.6-7.5,2.2
		c1.9,1.6,3.9,3.2,6,4.6c3.7-1.2,8.2-2.4,15.6-2.4c8.9,0,13.6,1.6,17.7,3.1c3.8,1.3,7.1,2.5,14.1,2.5c7,0,10.3-1.1,14.1-2.5
		c4.1-1.4,8.8-3.1,17.7-3.1c7.5,0,12,1.1,15.7,2.4C563.4,365.7,565.4,364.1,567.3,362.5z M596.9,299c0-45.9-37.2-83.1-83.1-83.1
		c-45.9,0-83.1,37.2-83.1,83.1c0,22.9,9.3,43.6,24.2,58.6c3.9-0.4,6.4-1.3,9.2-2.2c4.1-1.4,8.8-3.1,17.7-3.1
		c8.9,0,13.6,1.6,17.7,3.1c3.8,1.3,7.1,2.5,14.1,2.5c7,0,10.3-1.1,14.1-2.5c4.1-1.4,8.8-3.1,17.7-3.1c8.9,0,13.6,1.6,17.7,3.1
		c2.8,1,5.3,1.9,9.3,2.2C587.6,342.6,596.9,321.9,596.9,299z M602.4,299c0,48.9-39.6,88.5-88.5,88.5c-48.9,0-88.5-39.6-88.5-88.5
		s39.6-88.5,88.5-88.5C562.7,210.5,602.4,250.1,602.4,299z"/>
</g>
</svg>
